<mxfile host="app.diagrams.net" modified="2024-06-25T20:42:51.075Z" agent="Mozilla/5.0 (Windows NT 10.0; Win64; x64; rv:127.0) Gecko/20100101 Firefox/127.0" etag="u8gNmqfvkFyQdCkgVrYJ" version="24.6.3" type="device">
  <diagram name="Strona-1" id="lTAQE0slSdaoe6BzQmBb">
    <mxGraphModel dx="2895" dy="828" grid="1" gridSize="10" guides="1" tooltips="1" connect="1" arrows="1" fold="1" page="1" pageScale="1" pageWidth="827" pageHeight="1169" math="0" shadow="0">
      <root>
        <mxCell id="0" />
        <mxCell id="1" parent="0" />
        <mxCell id="vOPbjcdF3jV5u_TdWIij-1" value="" style="ellipse;html=1;shape=startState;fillColor=#000000;strokeColor=#ff0000;" vertex="1" parent="1">
          <mxGeometry x="120" y="40" width="30" height="30" as="geometry" />
        </mxCell>
        <mxCell id="vOPbjcdF3jV5u_TdWIij-2" value="" style="edgeStyle=orthogonalEdgeStyle;html=1;verticalAlign=bottom;endArrow=open;endSize=8;strokeColor=#ff0000;rounded=0;entryX=0.484;entryY=-0.043;entryDx=0;entryDy=0;entryPerimeter=0;" edge="1" source="vOPbjcdF3jV5u_TdWIij-1" parent="1" target="vOPbjcdF3jV5u_TdWIij-16">
          <mxGeometry relative="1" as="geometry">
            <mxPoint x="135" y="130" as="targetPoint" />
          </mxGeometry>
        </mxCell>
        <mxCell id="vOPbjcdF3jV5u_TdWIij-48" style="edgeStyle=orthogonalEdgeStyle;rounded=0;orthogonalLoop=1;jettySize=auto;html=1;entryX=0;entryY=0.5;entryDx=0;entryDy=0;" edge="1" parent="1" source="vOPbjcdF3jV5u_TdWIij-3" target="vOPbjcdF3jV5u_TdWIij-46">
          <mxGeometry relative="1" as="geometry" />
        </mxCell>
        <mxCell id="vOPbjcdF3jV5u_TdWIij-3" value="Przejdź do zakładki &lt;br&gt;,,Zgłaszane problemy&#39;&#39;" style="html=1;align=center;verticalAlign=top;rounded=1;absoluteArcSize=1;arcSize=10;dashed=0;whiteSpace=wrap;" vertex="1" parent="1">
          <mxGeometry x="310" y="335" width="161" height="50" as="geometry" />
        </mxCell>
        <mxCell id="vOPbjcdF3jV5u_TdWIij-43" style="edgeStyle=orthogonalEdgeStyle;rounded=0;orthogonalLoop=1;jettySize=auto;html=1;entryX=0;entryY=0.5;entryDx=0;entryDy=0;" edge="1" parent="1" source="vOPbjcdF3jV5u_TdWIij-5" target="vOPbjcdF3jV5u_TdWIij-3">
          <mxGeometry relative="1" as="geometry" />
        </mxCell>
        <mxCell id="vOPbjcdF3jV5u_TdWIij-5" value="Sprawdź czy Administrator jest zalogowany " style="rhombus;whiteSpace=wrap;html=1;" vertex="1" parent="1">
          <mxGeometry x="87.5" y="310" width="110" height="100" as="geometry" />
        </mxCell>
        <mxCell id="vOPbjcdF3jV5u_TdWIij-6" value="" style="endArrow=classic;html=1;rounded=0;exitX=0.5;exitY=1;exitDx=0;exitDy=0;entryX=0.5;entryY=0;entryDx=0;entryDy=0;" edge="1" parent="1" source="vOPbjcdF3jV5u_TdWIij-16" target="vOPbjcdF3jV5u_TdWIij-5">
          <mxGeometry width="50" height="50" relative="1" as="geometry">
            <mxPoint x="142.5" y="170" as="sourcePoint" />
            <mxPoint x="140.57140035594716" y="220.00098754184728" as="targetPoint" />
          </mxGeometry>
        </mxCell>
        <mxCell id="vOPbjcdF3jV5u_TdWIij-8" value="" style="endArrow=classic;html=1;rounded=0;exitX=0.5;exitY=1;exitDx=0;exitDy=0;" edge="1" parent="1">
          <mxGeometry width="50" height="50" relative="1" as="geometry">
            <mxPoint x="141" y="410" as="sourcePoint" />
            <mxPoint x="141.5" y="470" as="targetPoint" />
          </mxGeometry>
        </mxCell>
        <mxCell id="vOPbjcdF3jV5u_TdWIij-9" value="" style="html=1;points=[];perimeter=orthogonalPerimeter;fillColor=strokeColor;rotation=90;" vertex="1" parent="1">
          <mxGeometry x="142.5" y="465.5" width="5" height="181" as="geometry" />
        </mxCell>
        <mxCell id="vOPbjcdF3jV5u_TdWIij-10" value="" style="endArrow=classic;html=1;rounded=0;" edge="1" parent="1">
          <mxGeometry width="50" height="50" relative="1" as="geometry">
            <mxPoint x="139.5" y="510" as="sourcePoint" />
            <mxPoint x="139.47000000000003" y="555" as="targetPoint" />
          </mxGeometry>
        </mxCell>
        <mxCell id="vOPbjcdF3jV5u_TdWIij-11" value="" style="endArrow=classic;html=1;rounded=0;exitX=0.5;exitY=1;exitDx=0;exitDy=0;entryX=0.5;entryY=0;entryDx=0;entryDy=0;" edge="1" parent="1" target="vOPbjcdF3jV5u_TdWIij-19">
          <mxGeometry width="50" height="50" relative="1" as="geometry">
            <mxPoint x="85" y="556.5" as="sourcePoint" />
            <mxPoint x="87.5" y="620" as="targetPoint" />
          </mxGeometry>
        </mxCell>
        <mxCell id="vOPbjcdF3jV5u_TdWIij-12" value="" style="endArrow=classic;html=1;rounded=0;exitX=0.5;exitY=1;exitDx=0;exitDy=0;entryX=0.5;entryY=0;entryDx=0;entryDy=0;" edge="1" parent="1">
          <mxGeometry width="50" height="50" relative="1" as="geometry">
            <mxPoint x="222.5" y="560" as="sourcePoint" />
            <mxPoint x="227.5" y="610" as="targetPoint" />
          </mxGeometry>
        </mxCell>
        <mxCell id="vOPbjcdF3jV5u_TdWIij-13" value="" style="endArrow=classic;html=1;rounded=0;exitX=0.5;exitY=1;exitDx=0;exitDy=0;" edge="1" parent="1" source="vOPbjcdF3jV5u_TdWIij-19">
          <mxGeometry width="50" height="50" relative="1" as="geometry">
            <mxPoint x="85.5" y="670" as="sourcePoint" />
            <mxPoint x="85.5" y="718" as="targetPoint" />
          </mxGeometry>
        </mxCell>
        <mxCell id="vOPbjcdF3jV5u_TdWIij-14" value="" style="endArrow=classic;html=1;rounded=0;exitX=0.5;exitY=1;exitDx=0;exitDy=0;" edge="1" parent="1">
          <mxGeometry width="50" height="50" relative="1" as="geometry">
            <mxPoint x="224.5" y="658" as="sourcePoint" />
            <mxPoint x="225.5" y="718" as="targetPoint" />
          </mxGeometry>
        </mxCell>
        <mxCell id="vOPbjcdF3jV5u_TdWIij-15" value="[Niezalogowany]" style="text;html=1;align=center;verticalAlign=middle;resizable=0;points=[];autosize=1;strokeColor=none;fillColor=none;" vertex="1" parent="1">
          <mxGeometry x="137.5" y="410" width="110" height="30" as="geometry" />
        </mxCell>
        <mxCell id="vOPbjcdF3jV5u_TdWIij-16" value="Przejdź do panelu administratora" style="html=1;dashed=0;rounded=1;absoluteArcSize=1;arcSize=20;verticalAlign=middle;align=center;whiteSpace=wrap;" vertex="1" parent="1">
          <mxGeometry x="72.5" y="140" width="129" height="50" as="geometry" />
        </mxCell>
        <mxCell id="vOPbjcdF3jV5u_TdWIij-18" value="Przejdź do okna logowania" style="html=1;dashed=0;rounded=1;absoluteArcSize=1;arcSize=20;verticalAlign=middle;align=center;whiteSpace=wrap;" vertex="1" parent="1">
          <mxGeometry x="72.5" y="470" width="129" height="50" as="geometry" />
        </mxCell>
        <mxCell id="vOPbjcdF3jV5u_TdWIij-19" value="Wpisz login" style="html=1;dashed=0;rounded=1;absoluteArcSize=1;arcSize=20;verticalAlign=middle;align=center;whiteSpace=wrap;" vertex="1" parent="1">
          <mxGeometry x="22.5" y="610" width="129" height="50" as="geometry" />
        </mxCell>
        <mxCell id="vOPbjcdF3jV5u_TdWIij-20" value="Wpisz hasło" style="html=1;dashed=0;rounded=1;absoluteArcSize=1;arcSize=20;verticalAlign=middle;align=center;whiteSpace=wrap;" vertex="1" parent="1">
          <mxGeometry x="160" y="610" width="129" height="50" as="geometry" />
        </mxCell>
        <mxCell id="vOPbjcdF3jV5u_TdWIij-21" value="" style="endArrow=classic;html=1;rounded=0;entryX=0.5;entryY=0;entryDx=0;entryDy=0;exitX=0.45;exitY=0.473;exitDx=0;exitDy=0;exitPerimeter=0;" edge="1" parent="1" target="vOPbjcdF3jV5u_TdWIij-22" source="vOPbjcdF3jV5u_TdWIij-39">
          <mxGeometry width="50" height="50" relative="1" as="geometry">
            <mxPoint x="150" y="730" as="sourcePoint" />
            <mxPoint x="156" y="820" as="targetPoint" />
          </mxGeometry>
        </mxCell>
        <mxCell id="vOPbjcdF3jV5u_TdWIij-22" value="Czy dane logowania są prawidłowe?" style="rhombus;whiteSpace=wrap;html=1;" vertex="1" parent="1">
          <mxGeometry x="105" y="817" width="100" height="90" as="geometry" />
        </mxCell>
        <mxCell id="vOPbjcdF3jV5u_TdWIij-23" value="" style="endArrow=none;html=1;rounded=0;" edge="1" parent="1">
          <mxGeometry width="50" height="50" relative="1" as="geometry">
            <mxPoint x="205" y="861.55" as="sourcePoint" />
            <mxPoint x="340" y="862" as="targetPoint" />
          </mxGeometry>
        </mxCell>
        <mxCell id="vOPbjcdF3jV5u_TdWIij-24" value="[true]" style="text;html=1;align=center;verticalAlign=middle;resizable=0;points=[];autosize=1;strokeColor=none;fillColor=none;" vertex="1" parent="1">
          <mxGeometry x="200" y="827" width="50" height="30" as="geometry" />
        </mxCell>
        <mxCell id="vOPbjcdF3jV5u_TdWIij-25" value="" style="endArrow=none;html=1;rounded=0;" edge="1" parent="1">
          <mxGeometry width="50" height="50" relative="1" as="geometry">
            <mxPoint x="-30" y="861.3299999999999" as="sourcePoint" />
            <mxPoint x="105" y="861.78" as="targetPoint" />
          </mxGeometry>
        </mxCell>
        <mxCell id="vOPbjcdF3jV5u_TdWIij-26" value="[ilość_prób&amp;lt;=3]" style="text;html=1;align=center;verticalAlign=middle;resizable=0;points=[];autosize=1;strokeColor=none;fillColor=none;" vertex="1" parent="1">
          <mxGeometry x="20" y="827" width="110" height="30" as="geometry" />
        </mxCell>
        <mxCell id="vOPbjcdF3jV5u_TdWIij-27" value="" style="endArrow=classic;html=1;rounded=0;exitX=0.5;exitY=1;exitDx=0;exitDy=0;entryX=0.5;entryY=0;entryDx=0;entryDy=0;" edge="1" parent="1">
          <mxGeometry width="50" height="50" relative="1" as="geometry">
            <mxPoint x="155" y="907" as="sourcePoint" />
            <mxPoint x="155" y="964" as="targetPoint" />
          </mxGeometry>
        </mxCell>
        <mxCell id="vOPbjcdF3jV5u_TdWIij-28" value="[ilość_prób&amp;gt;3]" style="text;html=1;align=center;verticalAlign=middle;resizable=0;points=[];autosize=1;strokeColor=none;fillColor=none;" vertex="1" parent="1">
          <mxGeometry x="155" y="917" width="100" height="30" as="geometry" />
        </mxCell>
        <mxCell id="vOPbjcdF3jV5u_TdWIij-29" value="" style="html=1;points=[];perimeter=orthogonalPerimeter;fillColor=strokeColor;rotation=90;" vertex="1" parent="1">
          <mxGeometry x="161.75" y="857.25" width="5" height="220.5" as="geometry" />
        </mxCell>
        <mxCell id="vOPbjcdF3jV5u_TdWIij-30" value="" style="endArrow=classic;html=1;rounded=0;exitX=0.5;exitY=1;exitDx=0;exitDy=0;entryX=0.5;entryY=0;entryDx=0;entryDy=0;" edge="1" parent="1">
          <mxGeometry width="50" height="50" relative="1" as="geometry">
            <mxPoint x="232.24" y="967" as="sourcePoint" />
            <mxPoint x="232.5" y="1017" as="targetPoint" />
          </mxGeometry>
        </mxCell>
        <mxCell id="vOPbjcdF3jV5u_TdWIij-31" value="" style="endArrow=classic;html=1;rounded=0;exitX=0.5;exitY=1;exitDx=0;exitDy=0;entryX=0.5;entryY=0;entryDx=0;entryDy=0;" edge="1" parent="1" target="vOPbjcdF3jV5u_TdWIij-38">
          <mxGeometry width="50" height="50" relative="1" as="geometry">
            <mxPoint x="97.12" y="968" as="sourcePoint" />
            <mxPoint x="97.88" y="1018" as="targetPoint" />
          </mxGeometry>
        </mxCell>
        <mxCell id="vOPbjcdF3jV5u_TdWIij-32" value="" style="html=1;points=[];perimeter=orthogonalPerimeter;fillColor=strokeColor;rotation=90;" vertex="1" parent="1">
          <mxGeometry x="156.75" y="987" width="5" height="220.5" as="geometry" />
        </mxCell>
        <mxCell id="vOPbjcdF3jV5u_TdWIij-33" value="" style="endArrow=classic;html=1;rounded=0;exitX=0.5;exitY=1;exitDx=0;exitDy=0;entryX=-0.41;entryY=0.169;entryDx=0;entryDy=0;entryPerimeter=0;" edge="1" parent="1" source="vOPbjcdF3jV5u_TdWIij-37" target="vOPbjcdF3jV5u_TdWIij-32">
          <mxGeometry width="50" height="50" relative="1" as="geometry">
            <mxPoint x="232.12" y="1057" as="sourcePoint" />
            <mxPoint x="233" y="1087" as="targetPoint" />
          </mxGeometry>
        </mxCell>
        <mxCell id="vOPbjcdF3jV5u_TdWIij-34" value="" style="endArrow=classic;html=1;rounded=0;exitX=0.5;exitY=1;exitDx=0;exitDy=0;entryX=-0.41;entryY=0.169;entryDx=0;entryDy=0;entryPerimeter=0;" edge="1" parent="1" source="vOPbjcdF3jV5u_TdWIij-38">
          <mxGeometry width="50" height="50" relative="1" as="geometry">
            <mxPoint x="95.12" y="1058" as="sourcePoint" />
            <mxPoint x="95" y="1094" as="targetPoint" />
          </mxGeometry>
        </mxCell>
        <mxCell id="vOPbjcdF3jV5u_TdWIij-35" value="" style="endArrow=classic;html=1;rounded=0;exitX=0.5;exitY=1;exitDx=0;exitDy=0;entryX=-0.41;entryY=0.169;entryDx=0;entryDy=0;entryPerimeter=0;" edge="1" parent="1">
          <mxGeometry width="50" height="50" relative="1" as="geometry">
            <mxPoint x="159.11" y="1097" as="sourcePoint" />
            <mxPoint x="158.99" y="1133" as="targetPoint" />
          </mxGeometry>
        </mxCell>
        <mxCell id="vOPbjcdF3jV5u_TdWIij-36" value="" style="shape=sumEllipse;perimeter=ellipsePerimeter;html=1;backgroundOutline=1;" vertex="1" parent="1">
          <mxGeometry x="144.25" y="1130" width="30" height="30" as="geometry" />
        </mxCell>
        <mxCell id="vOPbjcdF3jV5u_TdWIij-37" value="Zgłoś potencjalne włamanie na konto administratora do systemu" style="html=1;dashed=0;rounded=1;absoluteArcSize=1;arcSize=20;verticalAlign=middle;align=center;whiteSpace=wrap;" vertex="1" parent="1">
          <mxGeometry x="170" y="1017" width="129" height="50" as="geometry" />
        </mxCell>
        <mxCell id="vOPbjcdF3jV5u_TdWIij-38" value="Anuluj Logowanie" style="html=1;dashed=0;rounded=1;absoluteArcSize=1;arcSize=20;verticalAlign=middle;align=center;whiteSpace=wrap;" vertex="1" parent="1">
          <mxGeometry x="30" y="1017" width="129" height="50" as="geometry" />
        </mxCell>
        <mxCell id="vOPbjcdF3jV5u_TdWIij-39" value="" style="html=1;points=[];perimeter=orthogonalPerimeter;fillColor=strokeColor;rotation=90;" vertex="1" parent="1">
          <mxGeometry x="146.5" y="610" width="5" height="220.5" as="geometry" />
        </mxCell>
        <mxCell id="vOPbjcdF3jV5u_TdWIij-40" value="" style="endArrow=none;html=1;rounded=0;" edge="1" parent="1">
          <mxGeometry width="50" height="50" relative="1" as="geometry">
            <mxPoint x="-30" y="500" as="sourcePoint" />
            <mxPoint x="-30" y="860" as="targetPoint" />
          </mxGeometry>
        </mxCell>
        <mxCell id="vOPbjcdF3jV5u_TdWIij-41" value="" style="endArrow=classic;html=1;rounded=0;entryX=0;entryY=0.5;entryDx=0;entryDy=0;" edge="1" parent="1" target="vOPbjcdF3jV5u_TdWIij-18">
          <mxGeometry width="50" height="50" relative="1" as="geometry">
            <mxPoint x="-30" y="500" as="sourcePoint" />
            <mxPoint x="70" y="515" as="targetPoint" />
          </mxGeometry>
        </mxCell>
        <mxCell id="vOPbjcdF3jV5u_TdWIij-44" value="[Zalogowany]" style="text;html=1;align=center;verticalAlign=middle;resizable=0;points=[];autosize=1;strokeColor=none;fillColor=none;" vertex="1" parent="1">
          <mxGeometry x="199" y="320" width="90" height="30" as="geometry" />
        </mxCell>
        <mxCell id="vOPbjcdF3jV5u_TdWIij-45" style="edgeStyle=orthogonalEdgeStyle;rounded=0;orthogonalLoop=1;jettySize=auto;html=1;" edge="1" parent="1">
          <mxGeometry relative="1" as="geometry">
            <mxPoint x="340" y="870" as="sourcePoint" />
            <mxPoint x="340" y="380" as="targetPoint" />
            <Array as="points">
              <mxPoint x="340" y="760" />
              <mxPoint x="340" y="760" />
            </Array>
          </mxGeometry>
        </mxCell>
        <mxCell id="vOPbjcdF3jV5u_TdWIij-50" style="edgeStyle=orthogonalEdgeStyle;rounded=0;orthogonalLoop=1;jettySize=auto;html=1;entryX=0.5;entryY=0;entryDx=0;entryDy=0;" edge="1" parent="1" source="vOPbjcdF3jV5u_TdWIij-46" target="vOPbjcdF3jV5u_TdWIij-49">
          <mxGeometry relative="1" as="geometry" />
        </mxCell>
        <mxCell id="vOPbjcdF3jV5u_TdWIij-54" style="edgeStyle=orthogonalEdgeStyle;rounded=0;orthogonalLoop=1;jettySize=auto;html=1;" edge="1" parent="1" source="vOPbjcdF3jV5u_TdWIij-46" target="vOPbjcdF3jV5u_TdWIij-53">
          <mxGeometry relative="1" as="geometry" />
        </mxCell>
        <mxCell id="vOPbjcdF3jV5u_TdWIij-46" value="Sprawdź czy w systemie zarejestrowane zostało zgłoszenie użytkownika" style="rhombus;whiteSpace=wrap;html=1;" vertex="1" parent="1">
          <mxGeometry x="540" y="295" width="170" height="130" as="geometry" />
        </mxCell>
        <mxCell id="vOPbjcdF3jV5u_TdWIij-58" style="edgeStyle=orthogonalEdgeStyle;rounded=0;orthogonalLoop=1;jettySize=auto;html=1;entryX=0.5;entryY=0;entryDx=0;entryDy=0;" edge="1" parent="1" source="vOPbjcdF3jV5u_TdWIij-49" target="vOPbjcdF3jV5u_TdWIij-55">
          <mxGeometry relative="1" as="geometry" />
        </mxCell>
        <mxCell id="vOPbjcdF3jV5u_TdWIij-49" value="Wyświetl komunikat o braku zgłaszanych problemów przez użytkowników" style="html=1;align=center;verticalAlign=top;rounded=1;absoluteArcSize=1;arcSize=10;dashed=0;whiteSpace=wrap;" vertex="1" parent="1">
          <mxGeometry x="544.5" y="500" width="161" height="50" as="geometry" />
        </mxCell>
        <mxCell id="vOPbjcdF3jV5u_TdWIij-51" value="[else]" style="text;html=1;align=center;verticalAlign=middle;resizable=0;points=[];autosize=1;strokeColor=none;fillColor=none;" vertex="1" parent="1">
          <mxGeometry x="660" y="435.5" width="50" height="30" as="geometry" />
        </mxCell>
        <mxCell id="vOPbjcdF3jV5u_TdWIij-52" value="[zgloszoneProblemy.length&amp;gt;0]" style="text;html=1;align=center;verticalAlign=middle;resizable=0;points=[];autosize=1;strokeColor=none;fillColor=none;" vertex="1" parent="1">
          <mxGeometry x="710" y="310" width="180" height="30" as="geometry" />
        </mxCell>
        <mxCell id="vOPbjcdF3jV5u_TdWIij-64" style="edgeStyle=orthogonalEdgeStyle;rounded=0;orthogonalLoop=1;jettySize=auto;html=1;entryX=0;entryY=0.5;entryDx=0;entryDy=0;" edge="1" parent="1" source="vOPbjcdF3jV5u_TdWIij-53" target="vOPbjcdF3jV5u_TdWIij-62">
          <mxGeometry relative="1" as="geometry">
            <Array as="points">
              <mxPoint x="1161" y="360" />
            </Array>
          </mxGeometry>
        </mxCell>
        <mxCell id="vOPbjcdF3jV5u_TdWIij-53" value="Wyświetl treść problemu" style="html=1;align=center;verticalAlign=top;rounded=1;absoluteArcSize=1;arcSize=10;dashed=0;whiteSpace=wrap;" vertex="1" parent="1">
          <mxGeometry x="890" y="335" width="161" height="50" as="geometry" />
        </mxCell>
        <mxCell id="vOPbjcdF3jV5u_TdWIij-55" value="" style="shape=sumEllipse;perimeter=ellipsePerimeter;html=1;backgroundOutline=1;" vertex="1" parent="1">
          <mxGeometry x="610" y="600" width="30" height="30" as="geometry" />
        </mxCell>
        <mxCell id="vOPbjcdF3jV5u_TdWIij-67" style="edgeStyle=orthogonalEdgeStyle;rounded=0;orthogonalLoop=1;jettySize=auto;html=1;" edge="1" parent="1" source="vOPbjcdF3jV5u_TdWIij-60" target="vOPbjcdF3jV5u_TdWIij-66">
          <mxGeometry relative="1" as="geometry" />
        </mxCell>
        <mxCell id="vOPbjcdF3jV5u_TdWIij-60" value="Zmień status problemu na &lt;br&gt;,,W trakcie rozwiązywania&#39;&#39;" style="html=1;align=center;verticalAlign=top;rounded=1;absoluteArcSize=1;arcSize=10;dashed=0;whiteSpace=wrap;" vertex="1" parent="1">
          <mxGeometry x="1180" y="465.5" width="161" height="50" as="geometry" />
        </mxCell>
        <mxCell id="vOPbjcdF3jV5u_TdWIij-65" style="edgeStyle=orthogonalEdgeStyle;rounded=0;orthogonalLoop=1;jettySize=auto;html=1;" edge="1" parent="1" source="vOPbjcdF3jV5u_TdWIij-62" target="vOPbjcdF3jV5u_TdWIij-60">
          <mxGeometry relative="1" as="geometry" />
        </mxCell>
        <mxCell id="vOPbjcdF3jV5u_TdWIij-62" value="Skontaktuj się z użytkownikiem, który zgłosił problem w celu uzyskania dodatkowych informacji" style="html=1;align=center;verticalAlign=top;rounded=1;absoluteArcSize=1;arcSize=10;dashed=0;whiteSpace=wrap;" vertex="1" parent="1">
          <mxGeometry x="1180" y="322.75" width="160" height="74.5" as="geometry" />
        </mxCell>
        <mxCell id="vOPbjcdF3jV5u_TdWIij-66" value="Wyślij wiadomość e-mail do drugiego użytkownika w celu rozwiązania problemu " style="html=1;align=center;verticalAlign=top;rounded=1;absoluteArcSize=1;arcSize=10;dashed=0;whiteSpace=wrap;" vertex="1" parent="1">
          <mxGeometry x="1180" y="590" width="160" height="74.5" as="geometry" />
        </mxCell>
        <mxCell id="vOPbjcdF3jV5u_TdWIij-68" value="" style="shape=collate;whiteSpace=wrap;html=1;fillColor=#EDEDED;" vertex="1" parent="1">
          <mxGeometry x="1430" y="597.25" width="70" height="60" as="geometry" />
        </mxCell>
        <mxCell id="vOPbjcdF3jV5u_TdWIij-70" style="edgeStyle=orthogonalEdgeStyle;rounded=0;orthogonalLoop=1;jettySize=auto;html=1;entryX=0.4;entryY=0.535;entryDx=0;entryDy=0;entryPerimeter=0;" edge="1" parent="1" source="vOPbjcdF3jV5u_TdWIij-66" target="vOPbjcdF3jV5u_TdWIij-68">
          <mxGeometry relative="1" as="geometry">
            <Array as="points">
              <mxPoint x="1385" y="627" />
              <mxPoint x="1385" y="629" />
            </Array>
          </mxGeometry>
        </mxCell>
        <mxCell id="vOPbjcdF3jV5u_TdWIij-71" value="Czekaj 7 dni" style="text;html=1;align=center;verticalAlign=middle;resizable=0;points=[];autosize=1;strokeColor=none;fillColor=none;" vertex="1" parent="1">
          <mxGeometry x="1500" y="620" width="90" height="30" as="geometry" />
        </mxCell>
        <mxCell id="vOPbjcdF3jV5u_TdWIij-74" style="edgeStyle=orthogonalEdgeStyle;rounded=0;orthogonalLoop=1;jettySize=auto;html=1;exitX=1;exitY=1;exitDx=0;exitDy=0;entryX=0.011;entryY=0.912;entryDx=0;entryDy=0;entryPerimeter=0;" edge="1" parent="1" source="vOPbjcdF3jV5u_TdWIij-68">
          <mxGeometry relative="1" as="geometry">
            <mxPoint x="1611.7710000000002" y="655.6000000000001" as="targetPoint" />
            <Array as="points">
              <mxPoint x="1555" y="657" />
              <mxPoint x="1555" y="656" />
            </Array>
          </mxGeometry>
        </mxCell>
        <mxCell id="vOPbjcdF3jV5u_TdWIij-91" style="edgeStyle=orthogonalEdgeStyle;rounded=0;orthogonalLoop=1;jettySize=auto;html=1;entryX=0.5;entryY=0;entryDx=0;entryDy=0;" edge="1" parent="1" source="vOPbjcdF3jV5u_TdWIij-77" target="vOPbjcdF3jV5u_TdWIij-89">
          <mxGeometry relative="1" as="geometry" />
        </mxCell>
        <mxCell id="vOPbjcdF3jV5u_TdWIij-95" style="edgeStyle=orthogonalEdgeStyle;rounded=0;orthogonalLoop=1;jettySize=auto;html=1;entryX=0.5;entryY=1;entryDx=0;entryDy=0;" edge="1" parent="1" source="vOPbjcdF3jV5u_TdWIij-77" target="vOPbjcdF3jV5u_TdWIij-94">
          <mxGeometry relative="1" as="geometry" />
        </mxCell>
        <mxCell id="vOPbjcdF3jV5u_TdWIij-77" value="Sprawdź czy użytkownik przesłał odpowiedź" style="rhombus;whiteSpace=wrap;html=1;" vertex="1" parent="1">
          <mxGeometry x="1610" y="590" width="170" height="130" as="geometry" />
        </mxCell>
        <mxCell id="vOPbjcdF3jV5u_TdWIij-103" style="edgeStyle=orthogonalEdgeStyle;rounded=0;orthogonalLoop=1;jettySize=auto;html=1;entryX=0.5;entryY=0;entryDx=0;entryDy=0;" edge="1" parent="1" source="vOPbjcdF3jV5u_TdWIij-78" target="vOPbjcdF3jV5u_TdWIij-82">
          <mxGeometry relative="1" as="geometry" />
        </mxCell>
        <mxCell id="vOPbjcdF3jV5u_TdWIij-78" value="Cofnij wymianę użytkowników" style="html=1;align=center;verticalAlign=top;rounded=1;absoluteArcSize=1;arcSize=10;dashed=0;whiteSpace=wrap;" vertex="1" parent="1">
          <mxGeometry x="762" y="517" width="160" height="74.5" as="geometry" />
        </mxCell>
        <mxCell id="vOPbjcdF3jV5u_TdWIij-80" value="[false]" style="text;html=1;align=center;verticalAlign=middle;resizable=0;points=[];autosize=1;strokeColor=none;fillColor=none;" vertex="1" parent="1">
          <mxGeometry x="1625" y="555" width="60" height="30" as="geometry" />
        </mxCell>
        <mxCell id="vOPbjcdF3jV5u_TdWIij-104" style="edgeStyle=orthogonalEdgeStyle;rounded=0;orthogonalLoop=1;jettySize=auto;html=1;" edge="1" parent="1" source="vOPbjcdF3jV5u_TdWIij-82" target="vOPbjcdF3jV5u_TdWIij-84">
          <mxGeometry relative="1" as="geometry" />
        </mxCell>
        <mxCell id="vOPbjcdF3jV5u_TdWIij-82" value="Zablokuj konto użytkownika z możliwością odblokowania przez użytkownika, kiedy złoży odpowiedź na zgłoszony problem" style="html=1;align=center;verticalAlign=top;rounded=1;absoluteArcSize=1;arcSize=10;dashed=0;whiteSpace=wrap;" vertex="1" parent="1">
          <mxGeometry x="760" y="664.25" width="160" height="74.5" as="geometry" />
        </mxCell>
        <mxCell id="vOPbjcdF3jV5u_TdWIij-105" style="edgeStyle=orthogonalEdgeStyle;rounded=0;orthogonalLoop=1;jettySize=auto;html=1;entryX=0.5;entryY=0;entryDx=0;entryDy=0;" edge="1" parent="1" source="vOPbjcdF3jV5u_TdWIij-84" target="vOPbjcdF3jV5u_TdWIij-86">
          <mxGeometry relative="1" as="geometry" />
        </mxCell>
        <mxCell id="vOPbjcdF3jV5u_TdWIij-84" value="Powiadom użytkownika zgłaszającego o podjętych krokach" style="html=1;align=center;verticalAlign=top;rounded=1;absoluteArcSize=1;arcSize=10;dashed=0;whiteSpace=wrap;" vertex="1" parent="1">
          <mxGeometry x="762" y="794" width="160" height="74.5" as="geometry" />
        </mxCell>
        <mxCell id="vOPbjcdF3jV5u_TdWIij-107" style="edgeStyle=orthogonalEdgeStyle;rounded=0;orthogonalLoop=1;jettySize=auto;html=1;" edge="1" parent="1" source="vOPbjcdF3jV5u_TdWIij-86" target="vOPbjcdF3jV5u_TdWIij-106">
          <mxGeometry relative="1" as="geometry" />
        </mxCell>
        <mxCell id="vOPbjcdF3jV5u_TdWIij-86" value="Zmień status problemu na &lt;br&gt;,, Rozwiązane&#39;&#39;" style="html=1;align=center;verticalAlign=top;rounded=1;absoluteArcSize=1;arcSize=10;dashed=0;whiteSpace=wrap;" vertex="1" parent="1">
          <mxGeometry x="760" y="930" width="161" height="50" as="geometry" />
        </mxCell>
        <mxCell id="vOPbjcdF3jV5u_TdWIij-88" value="[true]" style="text;html=1;align=center;verticalAlign=middle;resizable=0;points=[];autosize=1;strokeColor=none;fillColor=none;" vertex="1" parent="1">
          <mxGeometry x="1620" y="720" width="50" height="30" as="geometry" />
        </mxCell>
        <mxCell id="vOPbjcdF3jV5u_TdWIij-93" style="edgeStyle=orthogonalEdgeStyle;rounded=0;orthogonalLoop=1;jettySize=auto;html=1;entryX=1;entryY=0.5;entryDx=0;entryDy=0;" edge="1" parent="1" source="vOPbjcdF3jV5u_TdWIij-89">
          <mxGeometry relative="1" as="geometry">
            <mxPoint x="1519.9999999999995" y="837.25" as="targetPoint" />
          </mxGeometry>
        </mxCell>
        <mxCell id="vOPbjcdF3jV5u_TdWIij-89" value="Zobacz odpowiedź użytkownika" style="html=1;align=center;verticalAlign=top;rounded=1;absoluteArcSize=1;arcSize=10;dashed=0;whiteSpace=wrap;" vertex="1" parent="1">
          <mxGeometry x="1615" y="800" width="160" height="74.5" as="geometry" />
        </mxCell>
        <mxCell id="vOPbjcdF3jV5u_TdWIij-94" value="A" style="ellipse;html=1;" vertex="1" parent="1">
          <mxGeometry x="1680" y="520" width="30" height="30" as="geometry" />
        </mxCell>
        <mxCell id="vOPbjcdF3jV5u_TdWIij-109" style="edgeStyle=orthogonalEdgeStyle;rounded=0;orthogonalLoop=1;jettySize=auto;html=1;entryX=1;entryY=0.5;entryDx=0;entryDy=0;" edge="1" parent="1" source="vOPbjcdF3jV5u_TdWIij-96" target="vOPbjcdF3jV5u_TdWIij-108">
          <mxGeometry relative="1" as="geometry" />
        </mxCell>
        <mxCell id="vOPbjcdF3jV5u_TdWIij-96" value="Sprawdź poprawność przesłanych plików przez użytkowników" style="rhombus;whiteSpace=wrap;html=1;" vertex="1" parent="1">
          <mxGeometry x="1350" y="772.25" width="170" height="130" as="geometry" />
        </mxCell>
        <mxCell id="vOPbjcdF3jV5u_TdWIij-97" value="[true]" style="text;html=1;align=center;verticalAlign=middle;resizable=0;points=[];autosize=1;strokeColor=none;fillColor=none;" vertex="1" parent="1">
          <mxGeometry x="1380" y="907" width="50" height="30" as="geometry" />
        </mxCell>
        <mxCell id="vOPbjcdF3jV5u_TdWIij-98" value="[false]" style="text;html=1;align=center;verticalAlign=middle;resizable=0;points=[];autosize=1;strokeColor=none;fillColor=none;" vertex="1" parent="1">
          <mxGeometry x="1300" y="800" width="60" height="30" as="geometry" />
        </mxCell>
        <mxCell id="vOPbjcdF3jV5u_TdWIij-102" style="edgeStyle=orthogonalEdgeStyle;rounded=0;orthogonalLoop=1;jettySize=auto;html=1;entryX=0.5;entryY=0;entryDx=0;entryDy=0;" edge="1" parent="1" source="vOPbjcdF3jV5u_TdWIij-99" target="vOPbjcdF3jV5u_TdWIij-78">
          <mxGeometry relative="1" as="geometry" />
        </mxCell>
        <mxCell id="vOPbjcdF3jV5u_TdWIij-99" value="A" style="ellipse;html=1;" vertex="1" parent="1">
          <mxGeometry x="825" y="447" width="30" height="30" as="geometry" />
        </mxCell>
        <mxCell id="vOPbjcdF3jV5u_TdWIij-106" value="" style="ellipse;html=1;shape=endState;fillColor=#000000;strokeColor=#ff0000;" vertex="1" parent="1">
          <mxGeometry x="825" y="1047.75" width="30" height="30" as="geometry" />
        </mxCell>
        <mxCell id="vOPbjcdF3jV5u_TdWIij-108" value="B" style="ellipse;html=1;" vertex="1" parent="1">
          <mxGeometry x="1280" y="822.25" width="30" height="30" as="geometry" />
        </mxCell>
        <mxCell id="vOPbjcdF3jV5u_TdWIij-112" style="edgeStyle=orthogonalEdgeStyle;rounded=0;orthogonalLoop=1;jettySize=auto;html=1;" edge="1" parent="1" source="vOPbjcdF3jV5u_TdWIij-110" target="vOPbjcdF3jV5u_TdWIij-111">
          <mxGeometry relative="1" as="geometry" />
        </mxCell>
        <mxCell id="vOPbjcdF3jV5u_TdWIij-110" value="B" style="ellipse;html=1;" vertex="1" parent="1">
          <mxGeometry x="1021" y="450" width="30" height="30" as="geometry" />
        </mxCell>
        <mxCell id="vOPbjcdF3jV5u_TdWIij-114" style="edgeStyle=orthogonalEdgeStyle;rounded=0;orthogonalLoop=1;jettySize=auto;html=1;entryX=0.5;entryY=0;entryDx=0;entryDy=0;" edge="1" parent="1" source="vOPbjcdF3jV5u_TdWIij-111" target="vOPbjcdF3jV5u_TdWIij-113">
          <mxGeometry relative="1" as="geometry" />
        </mxCell>
        <mxCell id="vOPbjcdF3jV5u_TdWIij-111" value="Cofnij wymianę użytkowników" style="html=1;align=center;verticalAlign=top;rounded=1;absoluteArcSize=1;arcSize=10;dashed=0;whiteSpace=wrap;" vertex="1" parent="1">
          <mxGeometry x="956" y="532.75" width="160" height="74.5" as="geometry" />
        </mxCell>
        <mxCell id="vOPbjcdF3jV5u_TdWIij-116" style="edgeStyle=orthogonalEdgeStyle;rounded=0;orthogonalLoop=1;jettySize=auto;html=1;entryX=0.5;entryY=0;entryDx=0;entryDy=0;" edge="1" parent="1" source="vOPbjcdF3jV5u_TdWIij-113" target="vOPbjcdF3jV5u_TdWIij-115">
          <mxGeometry relative="1" as="geometry" />
        </mxCell>
        <mxCell id="vOPbjcdF3jV5u_TdWIij-113" value="Zablokuj konto użytkownika za oszustwo" style="html=1;align=center;verticalAlign=top;rounded=1;absoluteArcSize=1;arcSize=10;dashed=0;whiteSpace=wrap;" vertex="1" parent="1">
          <mxGeometry x="956" y="650" width="160" height="74.5" as="geometry" />
        </mxCell>
        <mxCell id="vOPbjcdF3jV5u_TdWIij-118" style="edgeStyle=orthogonalEdgeStyle;rounded=0;orthogonalLoop=1;jettySize=auto;html=1;entryX=0.5;entryY=0;entryDx=0;entryDy=0;" edge="1" parent="1" source="vOPbjcdF3jV5u_TdWIij-115" target="vOPbjcdF3jV5u_TdWIij-117">
          <mxGeometry relative="1" as="geometry" />
        </mxCell>
        <mxCell id="vOPbjcdF3jV5u_TdWIij-115" value="Powiadom użytkownika zgłaszającego o podjętych krokach" style="html=1;align=center;verticalAlign=top;rounded=1;absoluteArcSize=1;arcSize=10;dashed=0;whiteSpace=wrap;" vertex="1" parent="1">
          <mxGeometry x="956" y="772.25" width="160" height="74.5" as="geometry" />
        </mxCell>
        <mxCell id="vOPbjcdF3jV5u_TdWIij-121" style="edgeStyle=orthogonalEdgeStyle;rounded=0;orthogonalLoop=1;jettySize=auto;html=1;entryX=0.5;entryY=0;entryDx=0;entryDy=0;" edge="1" parent="1" source="vOPbjcdF3jV5u_TdWIij-117" target="vOPbjcdF3jV5u_TdWIij-119">
          <mxGeometry relative="1" as="geometry" />
        </mxCell>
        <mxCell id="vOPbjcdF3jV5u_TdWIij-117" value="Powiadom użytkownika zgłaszającego o podjętych krokach" style="html=1;align=center;verticalAlign=top;rounded=1;absoluteArcSize=1;arcSize=10;dashed=0;whiteSpace=wrap;" vertex="1" parent="1">
          <mxGeometry x="956" y="894.75" width="160" height="74.5" as="geometry" />
        </mxCell>
        <mxCell id="vOPbjcdF3jV5u_TdWIij-125" style="edgeStyle=orthogonalEdgeStyle;rounded=0;orthogonalLoop=1;jettySize=auto;html=1;entryX=0.5;entryY=0;entryDx=0;entryDy=0;" edge="1" parent="1" source="vOPbjcdF3jV5u_TdWIij-119" target="vOPbjcdF3jV5u_TdWIij-122">
          <mxGeometry relative="1" as="geometry" />
        </mxCell>
        <mxCell id="vOPbjcdF3jV5u_TdWIij-119" value="Zmień status problemu na &lt;br&gt;,, Rozwiązane&#39;&#39;" style="html=1;align=center;verticalAlign=top;rounded=1;absoluteArcSize=1;arcSize=10;dashed=0;whiteSpace=wrap;" vertex="1" parent="1">
          <mxGeometry x="960" y="1000" width="161" height="50" as="geometry" />
        </mxCell>
        <mxCell id="vOPbjcdF3jV5u_TdWIij-122" value="" style="ellipse;html=1;shape=endState;fillColor=#000000;strokeColor=#ff0000;" vertex="1" parent="1">
          <mxGeometry x="1025.5" y="1077.75" width="30" height="30" as="geometry" />
        </mxCell>
        <mxCell id="vOPbjcdF3jV5u_TdWIij-144" style="edgeStyle=orthogonalEdgeStyle;rounded=0;orthogonalLoop=1;jettySize=auto;html=1;" edge="1" parent="1" source="vOPbjcdF3jV5u_TdWIij-126" target="vOPbjcdF3jV5u_TdWIij-129">
          <mxGeometry relative="1" as="geometry" />
        </mxCell>
        <mxCell id="vOPbjcdF3jV5u_TdWIij-126" value="Zaproponuj użytkownikom ponowną wymianę ksiązki" style="html=1;align=center;verticalAlign=top;rounded=1;absoluteArcSize=1;arcSize=10;dashed=0;whiteSpace=wrap;" vertex="1" parent="1">
          <mxGeometry x="1360" y="947" width="160" height="74.5" as="geometry" />
        </mxCell>
        <mxCell id="vOPbjcdF3jV5u_TdWIij-141" style="edgeStyle=orthogonalEdgeStyle;rounded=0;orthogonalLoop=1;jettySize=auto;html=1;entryX=1;entryY=0.5;entryDx=0;entryDy=0;" edge="1" parent="1" source="vOPbjcdF3jV5u_TdWIij-128" target="vOPbjcdF3jV5u_TdWIij-139">
          <mxGeometry relative="1" as="geometry">
            <Array as="points">
              <mxPoint x="1100" y="1245" />
              <mxPoint x="1100" y="1245" />
            </Array>
          </mxGeometry>
        </mxCell>
        <mxCell id="vOPbjcdF3jV5u_TdWIij-128" value="Zgłoś problem z pobraniem książki przez użytkowników do zespołu " style="html=1;align=center;verticalAlign=top;rounded=1;absoluteArcSize=1;arcSize=10;dashed=0;whiteSpace=wrap;" vertex="1" parent="1">
          <mxGeometry x="1110" y="1210" width="160" height="74.5" as="geometry" />
        </mxCell>
        <mxCell id="vOPbjcdF3jV5u_TdWIij-145" style="edgeStyle=orthogonalEdgeStyle;rounded=0;orthogonalLoop=1;jettySize=auto;html=1;entryX=0.5;entryY=0;entryDx=0;entryDy=0;" edge="1" parent="1" source="vOPbjcdF3jV5u_TdWIij-129" target="vOPbjcdF3jV5u_TdWIij-133">
          <mxGeometry relative="1" as="geometry" />
        </mxCell>
        <mxCell id="vOPbjcdF3jV5u_TdWIij-129" value="Cofnij wymianę użytkowników" style="html=1;align=center;verticalAlign=top;rounded=1;absoluteArcSize=1;arcSize=10;dashed=0;whiteSpace=wrap;" vertex="1" parent="1">
          <mxGeometry x="1355" y="1055.5" width="160" height="74.5" as="geometry" />
        </mxCell>
        <mxCell id="vOPbjcdF3jV5u_TdWIij-138" style="edgeStyle=orthogonalEdgeStyle;rounded=0;orthogonalLoop=1;jettySize=auto;html=1;entryX=1;entryY=0.5;entryDx=0;entryDy=0;" edge="1" parent="1" source="vOPbjcdF3jV5u_TdWIij-133" target="vOPbjcdF3jV5u_TdWIij-128">
          <mxGeometry relative="1" as="geometry" />
        </mxCell>
        <mxCell id="vOPbjcdF3jV5u_TdWIij-133" value="Sprawdź czy problem został rozwiązany " style="rhombus;whiteSpace=wrap;html=1;" vertex="1" parent="1">
          <mxGeometry x="1350" y="1180" width="170" height="130" as="geometry" />
        </mxCell>
        <mxCell id="vOPbjcdF3jV5u_TdWIij-136" value="[false]" style="text;html=1;align=center;verticalAlign=middle;resizable=0;points=[];autosize=1;strokeColor=none;fillColor=none;" vertex="1" parent="1">
          <mxGeometry x="1281" y="1207.5" width="60" height="30" as="geometry" />
        </mxCell>
        <mxCell id="vOPbjcdF3jV5u_TdWIij-142" style="edgeStyle=orthogonalEdgeStyle;rounded=0;orthogonalLoop=1;jettySize=auto;html=1;exitX=0.75;exitY=0;exitDx=0;exitDy=0;entryX=0;entryY=0.5;entryDx=0;entryDy=0;" edge="1" parent="1" source="vOPbjcdF3jV5u_TdWIij-139" target="vOPbjcdF3jV5u_TdWIij-126">
          <mxGeometry relative="1" as="geometry">
            <Array as="points">
              <mxPoint x="1011" y="1130" />
              <mxPoint x="1300" y="1130" />
              <mxPoint x="1300" y="984" />
            </Array>
          </mxGeometry>
        </mxCell>
        <mxCell id="vOPbjcdF3jV5u_TdWIij-139" value="Sprawdź odpowiedź od zespołu" style="html=1;align=center;verticalAlign=top;rounded=1;absoluteArcSize=1;arcSize=10;dashed=0;whiteSpace=wrap;" vertex="1" parent="1">
          <mxGeometry x="891" y="1207.75" width="160" height="74.5" as="geometry" />
        </mxCell>
        <mxCell id="vOPbjcdF3jV5u_TdWIij-143" style="edgeStyle=orthogonalEdgeStyle;rounded=0;orthogonalLoop=1;jettySize=auto;html=1;entryX=0.462;entryY=-0.028;entryDx=0;entryDy=0;entryPerimeter=0;" edge="1" parent="1" source="vOPbjcdF3jV5u_TdWIij-96" target="vOPbjcdF3jV5u_TdWIij-126">
          <mxGeometry relative="1" as="geometry" />
        </mxCell>
        <mxCell id="vOPbjcdF3jV5u_TdWIij-146" value="[true]" style="text;html=1;align=center;verticalAlign=middle;resizable=0;points=[];autosize=1;strokeColor=none;fillColor=none;" vertex="1" parent="1">
          <mxGeometry x="1355" y="1320" width="50" height="30" as="geometry" />
        </mxCell>
        <mxCell id="vOPbjcdF3jV5u_TdWIij-150" style="edgeStyle=orthogonalEdgeStyle;rounded=0;orthogonalLoop=1;jettySize=auto;html=1;entryX=0.5;entryY=0;entryDx=0;entryDy=0;" edge="1" parent="1" source="vOPbjcdF3jV5u_TdWIij-147" target="vOPbjcdF3jV5u_TdWIij-149">
          <mxGeometry relative="1" as="geometry" />
        </mxCell>
        <mxCell id="vOPbjcdF3jV5u_TdWIij-147" value="Powiadom użytkowników&amp;nbsp; o rozwiązaniu problemu" style="html=1;align=center;verticalAlign=top;rounded=1;absoluteArcSize=1;arcSize=10;dashed=0;whiteSpace=wrap;" vertex="1" parent="1">
          <mxGeometry x="1360" y="1350" width="160" height="74.5" as="geometry" />
        </mxCell>
        <mxCell id="vOPbjcdF3jV5u_TdWIij-148" style="edgeStyle=orthogonalEdgeStyle;rounded=0;orthogonalLoop=1;jettySize=auto;html=1;entryX=0.468;entryY=-0.02;entryDx=0;entryDy=0;entryPerimeter=0;" edge="1" parent="1" source="vOPbjcdF3jV5u_TdWIij-133" target="vOPbjcdF3jV5u_TdWIij-147">
          <mxGeometry relative="1" as="geometry" />
        </mxCell>
        <mxCell id="vOPbjcdF3jV5u_TdWIij-152" style="edgeStyle=orthogonalEdgeStyle;rounded=0;orthogonalLoop=1;jettySize=auto;html=1;entryX=0.5;entryY=0;entryDx=0;entryDy=0;" edge="1" parent="1" source="vOPbjcdF3jV5u_TdWIij-149" target="vOPbjcdF3jV5u_TdWIij-151">
          <mxGeometry relative="1" as="geometry" />
        </mxCell>
        <mxCell id="vOPbjcdF3jV5u_TdWIij-149" value="Zmień status problemu na &lt;br&gt;,, Rozwiązane&#39;&#39;" style="html=1;align=center;verticalAlign=top;rounded=1;absoluteArcSize=1;arcSize=10;dashed=0;whiteSpace=wrap;" vertex="1" parent="1">
          <mxGeometry x="1359.5" y="1470" width="161" height="50" as="geometry" />
        </mxCell>
        <mxCell id="vOPbjcdF3jV5u_TdWIij-151" value="" style="ellipse;html=1;shape=endState;fillColor=#000000;strokeColor=#ff0000;" vertex="1" parent="1">
          <mxGeometry x="1425" y="1570" width="30" height="30" as="geometry" />
        </mxCell>
        <mxCell id="vOPbjcdF3jV5u_TdWIij-171" value="System zarządzania problemem przez Administratora" style="shape=umlFrame;whiteSpace=wrap;html=1;pointerEvents=0;width=200;height=30;" vertex="1" parent="1">
          <mxGeometry x="-160" y="10" width="1990" height="1670" as="geometry" />
        </mxCell>
      </root>
    </mxGraphModel>
  </diagram>
</mxfile>
